<?xml version="1.0" encoding="UTF-8" standalone="no"?>
<svg
   width="16"
   height="16"
   fill="currentColor"
   class="bi bi-discord"
   viewBox="0 0 16 16"
   version="1.1"
   id="svg4"
   sodipodi:docname="discord_w.svg"
   inkscape:version="1.2.2 (b0a8486541, 2022-12-01)"
   xmlns:inkscape="http://www.inkscape.org/namespaces/inkscape"
   xmlns:sodipodi="http://sodipodi.sourceforge.net/DTD/sodipodi-0.dtd"
   xmlns="http://www.w3.org/2000/svg"
   xmlns:svg="http://www.w3.org/2000/svg">
  <defs
     id="defs8" />
  <sodipodi:namedview
     id="namedview6"
     pagecolor="#505050"
     bordercolor="#eeeeee"
     borderopacity="1"
     inkscape:showpageshadow="0"
     inkscape:pageopacity="0"
     inkscape:pagecheckerboard="0"
     inkscape:deskcolor="#505050"
     showgrid="false"
     inkscape:zoom="52.3125"
     inkscape:cx="6.9868578"
     inkscape:cy="8.2007168"
     inkscape:window-width="1920"
     inkscape:window-height="1017"
     inkscape:window-x="-8"
     inkscape:window-y="-8"
     inkscape:window-maximized="1"
     inkscape:current-layer="svg4" />
  <path
     d="M13.545 2.907a13.2 13.2 0 0 0-3.257-1.011.05.05 0 0 0-.052.025c-.141.25-.297.577-.406.833a12.2 12.2 0 0 0-3.658 0 8 8 0 0 0-.412-.833.05.05 0 0 0-.052-.025c-1.125.194-2.22.534-3.257 1.011a.04.04 0 0 0-.021.018C.356 6.024-.213 9.047.066 12.032q.003.022.021.037a13.3 13.3 0 0 0 3.995 2.02.05.05 0 0 0 .056-.019q.463-.63.818-1.329a.05.05 0 0 0-.01-.059l-.018-.011a9 9 0 0 1-1.248-.595.05.05 0 0 1-.02-.066l.015-.019q.127-.095.248-.195a.05.05 0 0 1 .051-.007c2.619 1.196 5.454 1.196 8.041 0a.05.05 0 0 1 .053.007q.121.1.248.195a.05.05 0 0 1-.004.085 8 8 0 0 1-1.249.594.05.05 0 0 0-.03.03.05.05 0 0 0 .003.041c.24.465.515.909.817 1.329a.05.05 0 0 0 .056.019 13.2 13.2 0 0 0 4.001-2.02.05.05 0 0 0 .021-.037c.334-3.451-.559-6.449-2.366-9.106a.03.03 0 0 0-.02-.019m-8.198 7.307c-.789 0-1.438-.724-1.438-1.612s.637-1.613 1.438-1.613c.807 0 1.45.73 1.438 1.613 0 .888-.637 1.612-1.438 1.612m5.316 0c-.788 0-1.438-.724-1.438-1.612s.637-1.613 1.438-1.613c.807 0 1.451.73 1.438 1.613 0 .888-.631 1.612-1.438 1.612"
     id="path2" />
  <path
     style="fill:#ffffff;stroke-width:0;paint-order:markers fill stroke"
     d="M 3.823178,13.99498 C 2.8728572,13.678115 1.9384099,13.245936 1.101613,12.736264 0.80182218,12.553669 0.2253258,12.164574 0.13936664,12.086814 L 0.06981276,12.023895 0.04807055,11.727599 C -0.00746282,10.970807 0.00409148,9.99923 0.07716907,9.2807646 0.29038283,7.184545 1.019115,5.1424856 2.2260119,3.2592593 2.3237115,3.10681 2.4130904,2.967334 2.4246314,2.9493125 2.4361724,2.931291 2.596427,2.852623 2.7807526,2.7744946 3.6758463,2.3950998 4.4806406,2.1469813 5.4256598,1.9590685 5.7170336,1.9011302 5.7292381,1.900197 5.7545936,1.9339172 c 0.030687,0.04081 0.3358129,0.6499898 0.380183,0.7590296 0.027643,0.067934 0.034895,0.073119 0.087533,0.062591 0.1170792,-0.023416 0.7457194,-0.08821 1.0414019,-0.1073383 0.391421,-0.025321 1.0811552,-0.025321 1.4725762,0 0.2949362,0.01908 0.9242319,0.083904 1.0407633,0.1072106 0.05575,0.01115 0.058183,0.00818 0.1374648,-0.1677287 0.090158,-0.2000402 0.3167892,-0.6487554 0.3394172,-0.6720249 0.01915,-0.019689 0.532454,0.08053 0.967094,0.188816 0.630487,0.157079 1.27497,0.3695356 1.854242,0.6112585 0.494459,0.2063315 0.455343,0.1815475 0.580284,0.3676688 0.588577,0.8767833 1.125687,1.9157121 1.489307,2.8807577 0.444435,1.1795273 0.693011,2.2993168 0.810496,3.651135 0.05655,0.6506755 0.01586,2.3487795 -0.05843,2.4387335 -0.03907,0.04731 -0.46629,0.345898 -0.786565,0.549744 -0.728123,0.463431 -1.57749,0.887657 -2.398293,1.197857 -0.295584,0.111708 -0.787314,0.277566 -0.820131,0.276625 -0.02438,-6.97e-4 -0.03212,-0.01105 -0.235648,-0.31514 -0.185529,-0.277199 -0.386566,-0.60817 -0.521907,-0.859226 -0.08385,-0.155532 -0.09571,-0.189304 -0.07357,-0.209394 0.01452,-0.01318 0.129627,-0.06534 0.255792,-0.115925 0.244377,-0.09798 0.680874,-0.309718 0.893668,-0.433507 0.08548,-0.04973 0.129032,-0.08695 0.129032,-0.110297 0,-0.04297 -0.250113,-0.249817 -0.30207,-0.249817 -0.02007,0 -0.125902,0.03918 -0.235189,0.08707 -0.958052,0.419791 -1.9677946,0.6758 -3.0565287,0.774949 -0.3291177,0.02997 -1.1343474,0.03008 -1.4814815,1.91e-4 C 6.241281,12.559103 5.2021261,12.3019 4.2819594,11.909051 3.9400164,11.763065 3.9492383,11.764133 3.8295214,11.856641 3.6994353,11.95716 3.6415771,12.0114 3.6415771,12.032834 c 0,0.0094 0.013332,0.03034 0.029627,0.04663 0.044002,0.044 0.8277225,0.431118 1.0647578,0.525934 0.137953,0.05518 0.2054958,0.09197 0.2054958,0.111935 0,0.11555 -0.7754869,1.362549 -0.8463889,1.361012 -0.012861,-2.79e-4 -0.1352121,-0.03779 -0.2718907,-0.08337 z M 5.6725286,10.180462 C 6.1083347,10.069002 6.4909983,9.7192975 6.6625168,9.2757431 6.7632153,9.0153323 6.783887,8.8968006 6.7833241,8.5830346 6.782741,8.2581047 6.7497841,8.0965563 6.634387,7.852978 6.4298057,7.4211512 6.0578147,7.1080524 5.6385122,7.0147665 5.426582,6.9676163 5.114284,6.982689 4.926053,7.0491523 4.4264057,7.2255748 4.0554659,7.6708603 3.93956,8.2333637 3.9002445,8.4241655 3.9001694,8.779545 3.939407,8.9709373 c 0.036859,0.1798035 0.1203095,0.393639 0.213466,0.5469915 0.1395338,0.2296971 0.4420661,0.5001742 0.6643342,0.5939432 0.257539,0.108649 0.5933905,0.135582 0.8553242,0.06859 z m 5.3167524,-6.48e-4 c 0.50926,-0.130246 0.911805,-0.5565886 1.065464,-1.1284492 0.03699,-0.1376822 0.0436,-0.2091479 0.04326,-0.4683298 C 12.097647,8.30538 12.092802,8.2613186 12.045448,8.1051378 11.887325,7.5836154 11.54542,7.207874 11.087216,7.0520763 10.885473,6.9834799 10.575989,6.967045 10.36595,7.0137741 9.8198446,7.1352709 9.3772272,7.6252607 9.2510425,8.2480075 c -0.040161,0.1982054 -0.029714,0.6167961 0.020052,0.8033668 0.1465963,0.5495903 0.5700744,0.9977577 1.0654315,1.1275487 0.189649,0.04969 0.460505,0.05006 0.652755,8.91e-4 z"
     id="path306" />
</svg>
