{
	"asset":{
		"generator":"Khronos glTF Blender I/O v4.3.47",
		"version":"2.0"
	},
	"extensionsUsed":[
		"KHR_materials_specular",
		"KHR_materials_ior",
		"EXT_texture_webp",
		"KHR_texture_transform"
	],
	"extensionsRequired":[
		"EXT_texture_webp",
		"KHR_texture_transform"
	],
	"scene":0,
	"scenes":[
		{
			"name":"Scene",
			"nodes":[
				0,
				1,
				2,
				3,
				4
			]
		}
	],
	"nodes":[
		{
			"mesh":0,
			"name":"SM_Containers_02b_14_StaticMeshComponent0.001",
			"rotation":[
				0.032899606972932816,
				-0.000586909765843302,
				0.025875020772218704,
				0.9991235136985779
			],
			"translation":[
				0.2640596628189087,
				0.4409883916378021,
				0.022265464067459106
			]
		},
		{
			"mesh":1,
			"name":"SM_Dishes_01e_22_StaticMeshComponent0.001",
			"rotation":[
				0.003333623753860593,
				-0.6313952803611755,
				0.0015368821332231164,
				0.7754524946212769
			],
			"translation":[
				-0.48187074065208435,
				0.45738622546195984,
				-0.22626197338104248
			]
		},
		{
			"mesh":2,
			"name":"SM_Metalware_04a_240_StaticMeshComponent0.001",
			"rotation":[
				0.027557704597711563,
				-0.0007051025168038905,
				0.025345517322421074,
				0.9992986917495728
			],
			"scale":[
				0.5361573696136475,
				0.5361573100090027,
				0.5361573100090027
			],
			"translation":[
				0.2777164578437805,
				0.465830534696579,
				0.0229264497756958
			]
		},
		{
			"mesh":3,
			"name":"SM_Outhouse_01a.001"
		},
		{
			"mesh":4,
			"name":"Mesh_Bucket_01.001",
			"translation":[
				-0.046447496861219406,
				0,
				-0.07950405776500702
			]
		}
	],
	"materials":[
		{
			"name":"MI_Containers_02a",
			"normalTexture":{
				"index":0
			},
			"occlusionTexture":{
				"index":1
			},
			"pbrMetallicRoughness":{
				"baseColorTexture":{
					"index":2
				},
				"metallicRoughnessTexture":{
					"index":1
				}
			}
		},
		{
			"alphaMode":"BLEND",
			"doubleSided":true,
			"name":"MI_Dishes_01a",
			"normalTexture":{
				"index":3,
				"scale":0.7999997138977051
			},
			"occlusionTexture":{
				"index":4
			},
			"pbrMetallicRoughness":{
				"baseColorTexture":{
					"index":5
				},
				"metallicRoughnessTexture":{
					"index":4
				}
			}
		},
		{
			"name":"MI_Metalware_01a_SM_Metalware_04a_240",
			"normalTexture":{
				"index":6
			},
			"occlusionTexture":{
				"index":7
			},
			"pbrMetallicRoughness":{
				"baseColorTexture":{
					"index":8
				},
				"metallicRoughnessTexture":{
					"index":7
				}
			}
		},
		{
			"extensions":{
				"KHR_materials_specular":{
					"specularFactor":0
				},
				"KHR_materials_ior":{
					"ior":1.4500000476837158
				}
			},
			"name":"Wood Planks",
			"normalTexture":{
				"extensions":{
					"KHR_texture_transform":{
						"offset":[
							-0.999999999999999,
							1.00000004371139
						],
						"rotation":1.5707963705062866
					}
				},
				"index":9,
				"scale":5.200000286102295
			},
			"pbrMetallicRoughness":{
				"baseColorTexture":{
					"extensions":{
						"KHR_texture_transform":{
							"offset":[
								-0.999999999999999,
								1.00000004371139
							],
							"rotation":1.5707963705062866
						}
					},
					"index":10
				},
				"metallicFactor":0,
				"metallicRoughnessTexture":{
					"extensions":{
						"KHR_texture_transform":{
							"offset":[
								-0.999999999999999,
								1.00000004371139
							],
							"rotation":1.5707963705062866
						}
					},
					"index":11
				}
			}
		},
		{
			"alphaMode":"BLEND",
			"name":"Inst_Bucket_01",
			"normalTexture":{
				"index":12
			},
			"occlusionTexture":{
				"index":13
			},
			"pbrMetallicRoughness":{
				"baseColorTexture":{
					"index":14
				},
				"metallicFactor":0,
				"roughnessFactor":0.40000003576278687
			}
		}
	],
	"meshes":[
		{
			"name":"SM_Containers_02b.001",
			"primitives":[
				{
					"attributes":{
						"POSITION":0,
						"NORMAL":1,
						"TEXCOORD_0":2
					},
					"indices":3,
					"material":0
				}
			]
		},
		{
			"name":"SM_Dishes_01e.001",
			"primitives":[
				{
					"attributes":{
						"POSITION":4,
						"NORMAL":5,
						"TEXCOORD_0":6
					},
					"indices":7,
					"material":1
				}
			]
		},
		{
			"name":"SM_Metalware_04a_240.001",
			"primitives":[
				{
					"attributes":{
						"POSITION":8,
						"NORMAL":9,
						"TEXCOORD_0":10
					},
					"indices":11,
					"material":2
				}
			]
		},
		{
			"name":"SM_Outhouse_01a.002",
			"primitives":[
				{
					"attributes":{
						"POSITION":12,
						"NORMAL":13,
						"TEXCOORD_0":14
					},
					"indices":15,
					"material":3
				}
			]
		},
		{
			"name":"Mesh_Bucket_01.001",
			"primitives":[
				{
					"attributes":{
						"POSITION":16,
						"NORMAL":17,
						"TEXCOORD_0":18
					},
					"indices":19,
					"material":4
				}
			]
		}
	],
	"textures":[
		{
			"extensions":{
				"EXT_texture_webp":{
					"source":0
				}
			},
			"sampler":0
		},
		{
			"extensions":{
				"EXT_texture_webp":{
					"source":1
				}
			},
			"sampler":0
		},
		{
			"extensions":{
				"EXT_texture_webp":{
					"source":2
				}
			},
			"sampler":0
		},
		{
			"extensions":{
				"EXT_texture_webp":{
					"source":3
				}
			},
			"sampler":0
		},
		{
			"extensions":{
				"EXT_texture_webp":{
					"source":4
				}
			},
			"sampler":0
		},
		{
			"extensions":{
				"EXT_texture_webp":{
					"source":5
				}
			},
			"sampler":0
		},
		{
			"extensions":{
				"EXT_texture_webp":{
					"source":6
				}
			},
			"sampler":1
		},
		{
			"extensions":{
				"EXT_texture_webp":{
					"source":7
				}
			},
			"sampler":1
		},
		{
			"extensions":{
				"EXT_texture_webp":{
					"source":8
				}
			},
			"sampler":1
		},
		{
			"extensions":{
				"EXT_texture_webp":{
					"source":9
				}
			},
			"sampler":0
		},
		{
			"extensions":{
				"EXT_texture_webp":{
					"source":10
				}
			},
			"sampler":0
		},
		{
			"extensions":{
				"EXT_texture_webp":{
					"source":11
				}
			},
			"sampler":0
		},
		{
			"extensions":{
				"EXT_texture_webp":{
					"source":12
				}
			},
			"sampler":1
		},
		{
			"extensions":{
				"EXT_texture_webp":{
					"source":13
				}
			},
			"sampler":0
		},
		{
			"extensions":{
				"EXT_texture_webp":{
					"source":14
				}
			},
			"sampler":1
		}
	],
	"images":[
		{
			"mimeType":"image/webp",
			"name":"MI_Containers_02a_Normal",
			"uri":"MI_Containers_02a_Normal.webp"
		},
		{
			"mimeType":"image/webp",
			"name":"MI_Containers_02a_Occlusion-MI_Containers_02a_MetallicRoughness",
			"uri":"MI_Containers_02a_Occlusion-MI_Containers_02a_MetallicRoughness.webp"
		},
		{
			"mimeType":"image/webp",
			"name":"MI_Containers_02a_BaseColor",
			"uri":"MI_Containers_02a_BaseColor.webp"
		},
		{
			"mimeType":"image/webp",
			"name":"MI_Dishes_01a_Normal",
			"uri":"MI_Dishes_01a_Normal.webp"
		},
		{
			"mimeType":"image/webp",
			"name":"MI_Dishes_01a_Occlusion-MI_Dishes_01a_MetallicRoughness",
			"uri":"MI_Dishes_01a_Occlusion-MI_Dishes_01a_MetallicRoughness.webp"
		},
		{
			"mimeType":"image/webp",
			"name":"MI_Dishes_01a_BaseColor",
			"uri":"MI_Dishes_01a_BaseColor.webp"
		},
		{
			"mimeType":"image/webp",
			"name":"MI_Metalware_01a_SM_Metalware_04a_240_Normal",
			"uri":"MI_Metalware_01a_SM_Metalware_04a_240_Normal.webp"
		},
		{
			"mimeType":"image/webp",
			"name":"MI_Metalware_01a_SM_Metalware_04a_240_Occlusion-MI_Metalware_01",
			"uri":"MI_Metalware_01a_SM_Metalware_04a_240_Occlusion-MI_Metalware_01.webp"
		},
		{
			"mimeType":"image/webp",
			"name":"MI_Metalware_01a_SM_Metalware_04a_240_BaseColor",
			"uri":"MI_Metalware_01a_SM_Metalware_04a_240_BaseColor.webp"
		},
		{
			"mimeType":"image/webp",
			"name":"brown_planks_03_Nor_4k",
			"uri":"brown_planks_03_Nor_4k.webp"
		},
		{
			"mimeType":"image/webp",
			"name":"brown_planks_03_diff_4k",
			"uri":"brown_planks_03_diff_4k.webp"
		},
		{
			"mimeType":"image/webp",
			"name":"brown_planks_03_rough_4k",
			"uri":"brown_planks_03_rough_4k.webp"
		},
		{
			"mimeType":"image/webp",
			"name":"Inst_Bucket_01_Normal",
			"uri":"Inst_Bucket_01_Normal.webp"
		},
		{
			"mimeType":"image/webp",
			"name":"T_Bucket_ARM_01",
			"uri":"T_Bucket_ARM_01.webp"
		},
		{
			"mimeType":"image/webp",
			"name":"Inst_Bucket_01_BaseColor",
			"uri":"Inst_Bucket_01_BaseColor.webp"
		}
	],
	"accessors":[
		{
			"bufferView":0,
			"componentType":5126,
			"count":1482,
			"max":[
				0.12905877828598022,
				0.3013593554496765,
				0.09969116002321243
			],
			"min":[
				-0.10038900375366211,
				3.725290215195187e-11,
				-0.09988046437501907
			],
			"type":"VEC3"
		},
		{
			"bufferView":1,
			"componentType":5126,
			"count":1482,
			"type":"VEC3"
		},
		{
			"bufferView":2,
			"componentType":5126,
			"count":1482,
			"type":"VEC2"
		},
		{
			"bufferView":3,
			"componentType":5123,
			"count":6870,
			"type":"SCALAR"
		},
		{
			"bufferView":4,
			"componentType":5126,
			"count":1285,
			"max":[
				0.0605211965739727,
				0.09820743650197983,
				0.1032089963555336
			],
			"min":[
				-0.0605211965739727,
				-1.28707648952026e-19,
				-0.06262306123971939
			],
			"type":"VEC3"
		},
		{
			"bufferView":5,
			"componentType":5126,
			"count":1285,
			"type":"VEC3"
		},
		{
			"bufferView":6,
			"componentType":5126,
			"count":1285,
			"type":"VEC2"
		},
		{
			"bufferView":7,
			"componentType":5123,
			"count":5250,
			"type":"SCALAR"
		},
		{
			"bufferView":8,
			"componentType":5126,
			"count":614,
			"max":[
				0.3032294511795044,
				0.07839266210794449,
				0.30411791801452637
			],
			"min":[
				-0.30411791801452637,
				-0.024202516302466393,
				-0.30411791801452637
			],
			"type":"VEC3"
		},
		{
			"bufferView":9,
			"componentType":5126,
			"count":614,
			"type":"VEC3"
		},
		{
			"bufferView":10,
			"componentType":5126,
			"count":614,
			"type":"VEC2"
		},
		{
			"bufferView":11,
			"componentType":5123,
			"count":1884,
			"type":"SCALAR"
		},
		{
			"bufferView":12,
			"componentType":5126,
			"count":1558,
			"max":[
				0.5210128426551819,
				0.5470485687255859,
				0.20495645701885223
			],
			"min":[
				-0.6090762615203857,
				0.0012323707342147827,
				-0.3284170627593994
			],
			"type":"VEC3"
		},
		{
			"bufferView":13,
			"componentType":5126,
			"count":1558,
			"type":"VEC3"
		},
		{
			"bufferView":14,
			"componentType":5126,
			"count":1558,
			"type":"VEC2"
		},
		{
			"bufferView":15,
			"componentType":5123,
			"count":3492,
			"type":"SCALAR"
		},
		{
			"bufferView":16,
			"componentType":5126,
			"count":120,
			"max":[
				0.14999999105930328,
				0.29999998211860657,
				0.14623917639255524
			],
			"min":[
				-0.14999999105930328,
				-3.274668125842462e-15,
				-0.14623917639255524
			],
			"type":"VEC3"
		},
		{
			"bufferView":17,
			"componentType":5126,
			"count":120,
			"type":"VEC3"
		},
		{
			"bufferView":18,
			"componentType":5126,
			"count":120,
			"type":"VEC2"
		},
		{
			"bufferView":19,
			"componentType":5123,
			"count":336,
			"type":"SCALAR"
		}
	],
	"bufferViews":[
		{
			"buffer":0,
			"byteLength":17784,
			"byteOffset":0,
			"target":34962
		},
		{
			"buffer":0,
			"byteLength":17784,
			"byteOffset":17784,
			"target":34962
		},
		{
			"buffer":0,
			"byteLength":11856,
			"byteOffset":35568,
			"target":34962
		},
		{
			"buffer":0,
			"byteLength":13740,
			"byteOffset":47424,
			"target":34963
		},
		{
			"buffer":0,
			"byteLength":15420,
			"byteOffset":61164,
			"target":34962
		},
		{
			"buffer":0,
			"byteLength":15420,
			"byteOffset":76584,
			"target":34962
		},
		{
			"buffer":0,
			"byteLength":10280,
			"byteOffset":92004,
			"target":34962
		},
		{
			"buffer":0,
			"byteLength":10500,
			"byteOffset":102284,
			"target":34963
		},
		{
			"buffer":0,
			"byteLength":7368,
			"byteOffset":112784,
			"target":34962
		},
		{
			"buffer":0,
			"byteLength":7368,
			"byteOffset":120152,
			"target":34962
		},
		{
			"buffer":0,
			"byteLength":4912,
			"byteOffset":127520,
			"target":34962
		},
		{
			"buffer":0,
			"byteLength":3768,
			"byteOffset":132432,
			"target":34963
		},
		{
			"buffer":0,
			"byteLength":18696,
			"byteOffset":136200,
			"target":34962
		},
		{
			"buffer":0,
			"byteLength":18696,
			"byteOffset":154896,
			"target":34962
		},
		{
			"buffer":0,
			"byteLength":12464,
			"byteOffset":173592,
			"target":34962
		},
		{
			"buffer":0,
			"byteLength":6984,
			"byteOffset":186056,
			"target":34963
		},
		{
			"buffer":0,
			"byteLength":1440,
			"byteOffset":193040,
			"target":34962
		},
		{
			"buffer":0,
			"byteLength":1440,
			"byteOffset":194480,
			"target":34962
		},
		{
			"buffer":0,
			"byteLength":960,
			"byteOffset":195920,
			"target":34962
		},
		{
			"buffer":0,
			"byteLength":672,
			"byteOffset":196880,
			"target":34963
		}
	],
	"samplers":[
		{
			"magFilter":9729,
			"minFilter":9987
		},
		{
			"magFilter":9728,
			"minFilter":9984
		}
	],
	"buffers":[
		{
			"byteLength":197552,
			"uri":"toilet.bin"
		}
	]
}
