# Blender 4.1.1
# www.blender.org
mtllib ore.mtl
o Rock_11.001
v 0.000359 -0.085595 0.018983
v 0.008229 0.044387 0.239011
v -0.061938 -0.045551 0.009536
v -0.139522 0.011130 0.206863
v -0.038405 0.137288 0.070238
v 0.058877 0.057914 -0.009090
v 0.012557 -0.051287 -0.076544
v 0.136903 0.073783 0.087074
v 0.028273 -0.131025 0.152676
v -0.190554 -0.013319 0.142048
v 0.137934 -0.072831 0.156909
v 0.123408 -0.118688 0.132165
v -0.070123 -0.078241 0.060964
v -0.166056 0.069383 0.104720
v -0.002588 -0.021341 0.227529
v -0.100456 -0.108577 0.062164
v 0.022422 0.112197 0.073301
v -0.078486 -0.041464 -0.151802
v -0.145548 0.006199 0.120434
v 0.200129 -0.064657 0.123095
v 0.003487 -0.028022 -0.120412
v -0.144201 -0.019110 -0.124831
v -0.180988 0.032772 0.060269
v 0.134592 -0.104757 0.101192
v -0.138115 0.048078 -0.091735
v 0.133174 0.065753 0.142305
v 0.119285 -0.061854 -0.034386
v -0.032272 -0.142670 -0.027976
v 0.025131 0.041402 0.191120
v -0.148892 0.053256 0.103538
v 0.026048 0.151671 0.088323
v 0.098800 0.011135 -0.064946
v 0.070445 0.056688 0.177896
v -0.056839 0.107872 -0.124354
v -0.034982 -0.096386 0.057443
v 0.123349 -0.025876 0.097311
v -0.113887 0.054204 -0.073373
v 0.034234 -0.017466 0.178761
v -0.042654 0.056713 0.183667
v 0.025847 0.007388 -0.163793
v -0.041067 -0.018246 -0.157338
v 0.153981 0.007878 0.107897
v -0.165192 -0.014431 0.061679
v 0.001598 0.127168 0.186763
v -0.157564 -0.055683 0.148497
v -0.058742 -0.073921 0.155750
v 0.048722 -0.009135 -0.077413
v -0.025930 0.043682 -0.076136
v 0.062664 -0.136308 0.109586
v 0.057953 0.136711 0.145579
v 0.071696 0.125665 0.057854
v 0.078105 0.045721 0.231894
v 0.073036 -0.102081 0.193511
v -0.152651 0.049363 0.177667
v 0.014859 0.034371 -0.091076
v -0.025850 -0.023888 -0.095595
v -0.088154 0.017267 -0.001710
v 0.115482 0.092496 0.171020
v 0.091645 -0.025445 0.002364
v 0.199012 -0.084953 0.038596
v -0.117474 -0.091542 -0.110169
v -0.049128 0.109157 0.121680
v 0.188835 0.008151 0.054315
v -0.070987 0.072829 -0.012385
v -0.009590 -0.117302 -0.104034
v 0.074260 -0.048690 0.176351
v -0.185579 0.041789 -0.054935
v -0.174494 -0.069346 -0.046145
v 0.211091 -0.011779 0.088418
v 0.162398 0.024109 0.159835
v -0.179287 -0.045321 0.044994
v -0.114530 -0.009818 -0.083114
v 0.033653 -0.095472 -0.110331
v -0.047803 0.146748 0.136227
v -0.000736 0.116439 -0.096141
v -0.074041 -0.065342 -0.074799
v 0.094467 0.066442 0.073607
v 0.064463 -0.061258 0.117278
v -0.137311 -0.014013 0.103077
vn 0.7455 0.4170 -0.5200
vn 0.5049 -0.8309 -0.2339
vn 0.6630 -0.5786 -0.4750
vn -0.4742 -0.8158 -0.3309
vn 0.2648 -0.1682 -0.9495
vn -0.7849 0.1706 -0.5957
vn 0.6449 0.4720 -0.6011
vn 0.6264 0.7794 -0.0139
vn 0.8972 0.0848 0.4334
vn 0.9387 0.2980 0.1731
vn 0.8518 0.0562 -0.5209
vn 0.3453 -0.6975 -0.6279
vn 0.4199 -0.6853 -0.5950
vn 0.9628 -0.2515 -0.0990
vn 0.8616 -0.2882 -0.4179
vn -0.5432 -0.8333 0.1032
vn -0.3972 -0.7446 -0.5365
vn -0.5043 -0.3516 -0.7887
vn -0.4773 -0.7052 -0.5243
vn -0.4874 0.5886 -0.6450
vn -0.9431 0.1441 -0.2996
vn -0.4425 0.8407 0.3120
vn -0.7269 0.5488 -0.4129
vn -0.4117 0.8848 0.2182
vn 0.4384 0.5884 -0.6794
vn -0.0838 0.9899 0.1147
vn 0.3083 0.7430 0.5941
vn 0.2034 -0.8901 0.4079
vn -0.1820 -0.7199 0.6698
vn -0.3046 0.5098 0.8046
vn -0.8041 0.1610 0.5724
vn -0.6410 -0.3994 0.6554
vn 0.1031 -0.1876 0.9768
vn 0.6924 0.1931 -0.6952
vn 0.7581 0.6187 0.2060
vn 0.8506 0.1534 0.5029
vn 0.4614 -0.8640 0.2014
vn 0.5707 0.6377 -0.5174
vn 0.1833 0.9263 0.3293
vn 0.3035 0.6177 -0.7255
vn -0.1735 0.9573 -0.2311
vn 0.5370 -0.2277 -0.8123
vn -0.4530 -0.3344 -0.8264
vn -0.0956 -0.5913 -0.8008
vn -0.2051 0.4474 -0.8705
vn 0.5612 -0.3823 -0.7341
vn -0.4573 -0.8893 -0.0095
vn -0.1969 -0.9109 -0.3625
vn -0.4473 -0.8899 -0.0899
vn -0.0786 -0.8283 0.5547
vn 0.3554 -0.2245 0.9073
vn -0.3071 -0.3147 0.8982
vn -0.4198 0.3832 0.8228
vn -0.5924 0.5477 0.5909
vn -0.5680 -0.5389 0.6221
vn -0.6389 -0.7515 0.1645
vn -0.8769 -0.1106 0.4677
vn -0.9987 -0.0121 -0.0493
vn -0.5945 0.3980 -0.6987
vn -0.7514 -0.3856 -0.5355
vn -0.9781 -0.1675 -0.1234
vn -0.7951 -0.5963 -0.1107
vn -0.3069 -0.9427 -0.1307
vn -0.6265 -0.7794 0.0021
vn 0.9570 0.2785 -0.0813
vn 0.7396 0.6331 -0.2284
vn 0.7396 0.6331 -0.2283
vn 0.7403 0.6320 -0.2291
vn -0.0600 0.9820 -0.1789
vn 0.7775 0.5838 0.2337
vn -0.6516 0.7482 -0.1249
vn -0.1563 0.9777 -0.1404
vn -0.7192 0.6904 -0.0781
vn -0.3702 -0.4380 0.8192
vn -0.5698 0.3573 0.7400
vn -0.2938 -0.7159 0.6334
vn 0.5416 -0.5357 0.6479
vn 0.0510 -0.0132 0.9986
vn 0.3405 0.7244 0.5994
vn 0.3047 0.5546 -0.7743
vn -0.7019 0.0968 -0.7057
vn 0.6897 0.4956 -0.5279
vn 0.0884 -0.4541 -0.8866
vn -0.3902 -0.7239 -0.5689
vn 0.8672 0.2848 -0.4084
vn -0.4205 -0.8355 -0.3538
vn -0.8317 -0.4134 -0.3707
vn -0.2775 0.2656 -0.9233
vn 0.0969 0.9416 -0.3224
vn 0.6105 0.7920 -0.0041
vn 0.7433 0.2047 -0.6369
vn 0.1790 -0.9491 0.2592
vn -0.3450 -0.9245 -0.1620
vn -0.2816 -0.9067 -0.3139
vn -0.5286 -0.7838 -0.3260
vn -0.1858 -0.9803 0.0670
vn -0.7510 -0.6196 -0.2284
vn -0.6770 0.3306 -0.6575
vn -0.8843 0.3827 0.2675
vn 0.0286 0.8432 -0.5368
vn 0.0921 0.9896 -0.1102
vn 0.2965 0.6606 0.6897
vn -0.2896 0.4942 0.8197
vn 0.0754 0.5365 0.8405
vn 0.8274 0.0648 0.5578
vn 0.5540 -0.2270 0.8009
vn -0.3358 -0.6151 0.7133
vn -0.3366 -0.5539 0.7615
vn 0.5852 -0.5208 0.6215
vn -0.2562 -0.5958 0.7612
vn -0.1802 -0.1404 0.9736
vn 0.1589 -0.2533 0.9543
vn 0.6937 0.7195 -0.0322
vn 0.9826 -0.1833 0.0310
vn 0.8681 0.1734 -0.4652
vn -0.1940 0.9544 -0.2270
vn 0.4962 0.8362 -0.2335
vn 0.1856 0.6297 -0.7544
vn 0.3209 0.7925 -0.5186
vn 0.2085 0.7825 -0.5868
vn -0.2190 0.9687 -0.1169
vn 0.3801 -0.2205 -0.8983
vn 0.2957 -0.9292 -0.2217
vn 0.2539 -0.9662 -0.0444
vn -0.0390 -0.9440 0.3275
vn 0.2005 -0.7013 0.6841
vn 0.2170 -0.0415 0.9753
vn 0.2515 0.5201 0.8162
vn 0.1116 0.7683 0.6303
vn -0.3308 -0.5273 0.7827
vn -0.5294 0.8439 0.0871
vn -0.9948 -0.0967 0.0321
vn -0.8973 -0.1230 -0.4240
vn 0.3713 -0.9168 0.1469
vn 0.4435 -0.8668 -0.2281
vn 0.8709 -0.4340 -0.2307
vn 0.9068 0.3456 0.2412
vn 0.7404 0.6320 -0.2291
vn -0.9803 0.0393 -0.1937
vn -0.5964 -0.1081 0.7954
vn -0.0479 -0.8246 0.5637
vn 0.6284 -0.2985 0.7184
vn 0.0451 0.4677 0.8827
vn -0.1796 0.2278 -0.9570
vn -0.7185 0.1117 -0.6865
vn 0.7859 -0.2372 -0.5710
vn -0.6275 -0.5414 -0.5596
s 1
f 6//1 47//1 55//1
f 7//2 59//2 1//2
f 7//3 47//3 59//3
f 1//4 3//4 56//4
f 47//5 7//5 56//5 55//5
f 48//6 56//6 57//6
f 51//7 8//7 6//7
f 58//8 8//8 51//8
f 11//9 42//9 58//9
f 42//10 8//10 58//10
f 59//11 8//11 42//11
f 59//12 49//12 1//12
f 12//13 49//13 59//13
f 11//14 12//14 42//14
f 42//15 12//15 59//15
f 13//16 9//16 46//16
f 13//17 3//17 1//17
f 3//18 43//18 57//18
f 13//19 43//19 3//19
f 14//20 5//20 57//20
f 10//21 14//21 43//21
f 14//22 54//22 44//22
f 5//23 48//23 57//23
f 5//24 14//24 44//24
f 48//25 51//25 6//25
f 44//26 50//26 5//26
f 50//27 44//27 58//27
f 12//28 53//28 9//28
f 15//29 45//29 46//29
f 44//30 54//30 4//30
f 10//31 4//31 54//31
f 10//32 45//32 4//32
f 2//33 15//33 52//33
f 63//34 60//34 27//34
f 70//35 69//35 26//35
f 20//36 69//36 70//36
f 24//37 60//37 20//37
f 21//38 17//38 27//38
f 26//39 17//39 62//39
f 63//40 27//40 17//40
f 62//41 64//41 67//41
f 65//42 21//42 27//42
f 61//43 22//43 18//43
f 61//44 18//44 65//44
f 18//45 22//45 25//45
f 27//46 60//46 65//46
f 28//47 16//47 68//47
f 65//48 28//48 61//48
f 28//49 68//49 61//49
f 24//50 66//50 16//50
f 20//51 70//51 66//51
f 66//52 29//52 19//52
f 29//53 62//53 19//53
f 19//54 62//54 23//54
f 19//55 71//55 16//55
f 71//56 68//56 16//56
f 19//57 23//57 71//57
f 71//58 23//58 68//58
f 67//59 25//59 22//59
f 68//60 22//60 61//60
f 72//61 79//61 30//61
f 72//62 76//62 79//62
f 76//63 73//63 35//63
f 76//64 35//64 79//64
f 32//65 77//65 36//65
f 75//66 31//67 77//68
f 75//69 34//69 31//69
f 77//70 31//70 33//70
f 37//71 30//71 74//71
f 34//72 74//72 31//72
f 34//73 37//73 74//73
f 79//74 38//74 39//74
f 39//75 74//75 30//75
f 35//76 38//76 79//76
f 78//77 36//77 38//77
f 38//78 33//78 39//78
f 33//79 31//79 74//79
f 75//80 40//80 34//80
f 34//81 41//81 72//81
f 75//82 32//82 40//82
f 40//83 73//83 41//83
f 41//84 73//84 76//84
f 6//85 59//85 47//85
f 1//86 56//86 7//86
f 57//87 56//87 3//87
f 55//88 56//88 48//88
f 6//89 55//89 48//89
f 50//90 58//90 51//90
f 6//91 8//91 59//91
f 12//92 9//92 49//92
f 9//93 13//93 49//93
f 49//94 13//94 1//94
f 13//95 45//95 43//95
f 46//96 45//96 13//96
f 10//97 43//97 45//97
f 43//98 14//98 57//98
f 10//99 54//99 14//99
f 48//100 5//100 51//100
f 51//101 5//101 50//101
f 58//102 44//102 52//102
f 4//103 2//103 44//103
f 2//104 52//104 44//104
f 11//105 58//105 52//105
f 52//106 53//106 11//106
f 46//107 53//107 15//107
f 9//108 53//108 46//108
f 12//109 11//109 53//109
f 15//110 4//110 45//110
f 4//111 15//111 2//111
f 52//112 15//112 53//112
f 26//113 69//113 63//113
f 69//114 20//114 60//114
f 63//115 69//115 60//115
f 62//116 17//116 64//116
f 26//117 63//117 17//117
f 18//118 25//118 21//118
f 21//119 25//119 64//119
f 21//120 64//120 17//120
f 64//121 25//121 67//121
f 65//122 18//122 21//122
f 65//123 60//123 28//123
f 60//124 24//124 28//124
f 28//125 24//125 16//125
f 24//126 20//126 66//126
f 66//127 70//127 29//127
f 29//128 70//128 26//128
f 29//129 26//129 62//129
f 16//130 66//130 19//130
f 23//131 62//131 67//131
f 68//132 23//132 67//132
f 68//133 67//133 22//133
f 73//134 36//134 35//134
f 35//135 36//135 78//135
f 73//136 32//136 36//136
f 36//137 77//137 33//137
f 32//138 75//66 77//68
f 37//139 72//139 30//139
f 30//140 79//140 39//140
f 35//141 78//141 38//141
f 38//142 36//142 33//142
f 39//143 33//143 74//143
f 34//144 40//144 41//144
f 37//145 34//145 72//145
f 40//146 32//146 73//146
f 72//147 41//147 76//147
